<svg version="1.1" viewBox="0.0 0.0 96.0 96.0" fill="none" stroke="none" stroke-linecap="square" stroke-miterlimit="10" xmlns:xlink="http://www.w3.org/1999/xlink" xmlns="http://www.w3.org/2000/svg"><clipPath id="p.0"><path d="m0 0l96.0 0l0 96.0l-96.0 0l0 -96.0z" clip-rule="nonzero"/></clipPath><g clip-path="url(#p.0)"><path fill="#000000" fill-opacity="0.0" d="m0 0l96.0 0l0 96.0l-96.0 0z" fill-rule="evenodd"/><path fill="#000000" fill-opacity="0.0" d="m14.692913 65.70735l66.61417 0l0 13.385826l-66.61417 0z" fill-rule="evenodd"/><path stroke="#000000" stroke-width="4.0" stroke-linejoin="round" stroke-linecap="butt" d="m14.692913 65.70735l66.61417 0l0 13.385826l-66.61417 0z" fill-rule="evenodd"/><path fill="#000000" fill-opacity="0.0" d="m57.417324 18.494751l0 47.2126l-9.480316 0l0 -47.2126z" fill-rule="evenodd"/><path stroke="#000000" stroke-width="4.0" stroke-linejoin="round" stroke-linecap="butt" d="m57.417324 18.494751l0 47.2126l-9.480316 0l0 -47.2126z" fill-rule="evenodd"/><path fill="#000000" fill-opacity="0.0" d="m70.38845 18.494751l0 47.2126l-9.480312 0l0 -47.2126z" fill-rule="evenodd"/><path stroke="#000000" stroke-width="4.0" stroke-linejoin="round" stroke-linecap="butt" d="m70.38845 18.494751l0 47.2126l-9.480312 0l0 -47.2126z" fill-rule="evenodd"/><path fill="#000000" fill-opacity="0.0" d="m45.14551 19.471571l-9.543308 46.23622l-9.291338 -1.9212646l9.543306 -46.23622z" fill-rule="evenodd"/><path stroke="#000000" stroke-width="4.0" stroke-linejoin="round" stroke-linecap="butt" d="m45.14551 19.471571l-9.543308 46.23622l-9.291338 -1.9212646l9.543306 -46.23622z" fill-rule="evenodd"/></g></svg>