<svg version="1.1" viewBox="0.0 0.0 96.0 96.0" fill="none" stroke="none" stroke-linecap="square" stroke-miterlimit="10" xmlns:xlink="http://www.w3.org/1999/xlink" xmlns="http://www.w3.org/2000/svg"><clipPath id="p.0"><path d="m0 0l96.0 0l0 96.0l-96.0 0l0 -96.0z" clip-rule="nonzero"/></clipPath><g clip-path="url(#p.0)"><path fill="#000000" fill-opacity="0.0" d="m0 0l96.0 0l0 96.0l-96.0 0z" fill-rule="evenodd"/><path fill="#000000" fill-opacity="0.0" d="m27.559055 16.33071l40.881893 0l0 42.897636l-20.440948 20.44094l-20.440945 0z" fill-rule="evenodd"/><path fill="#000000" fill-opacity="0.0" d="m48.0 79.66929l4.088188 -16.352753l16.35276 -4.088188z" fill-rule="evenodd"/><path fill="#000000" fill-opacity="0.0" d="m48.0 79.66929l4.088188 -16.352753l16.35276 -4.088188l-20.440948 20.44094l-20.440945 0l0 -63.338577l40.881893 0l0 42.897636" fill-rule="evenodd"/><path fill="#000000" fill-opacity="0.2" d="m48.0 79.66929l4.088188 -16.352753l16.35276 -4.088188z" fill-rule="evenodd"/><path stroke="#000000" stroke-width="4.0" stroke-linejoin="round" stroke-linecap="butt" d="m48.0 79.66929l4.088188 -16.352753l16.35276 -4.088188l-20.440948 20.44094l-20.440945 0l0 -63.338577l40.881893 0l0 42.897636" fill-rule="evenodd"/></g></svg>